<svg xmlns="http://www.w3.org/2000/svg" width="28" height="28" viewBox="0 0 28 28"><defs><style>.a{fill:#fff;}.b{fill:#112052;fill-rule:evenodd;}</style></defs><g transform="translate(-37 -77)"><circle class="a" cx="14" cy="14" r="14" transform="translate(37 77)"/><g transform="translate(42.213 83.583)"><g transform="translate(0 0)"><path class="b" d="M145.351,1013.378l-.717,1.242a4.473,4.473,0,0,0-6.647,3.076,4.48,4.48,0,0,1,5.856-1.706l-.711,1.231,3.03-.812-.812-3.03Zm-4.953,5-.1.815h1.243a1,1,0,0,1,.908.57h-2.22l-.1.814h2.356a1,1,0,0,1-.948.651h-.773a.407.407,0,0,0-.308.673l1.865,2.176H143.4l-1.774-2.068a1.837,1.837,0,0,0,1.713-1.432h.672l-.1-.814h-.6a1.816,1.816,0,0,0-.248-.57h.781l-.1-.815H140.4Zm6.779,1.075a4.481,4.481,0,0,1-1.451,5.925l-.711-1.23-.811,3.029,3.029.812-.717-1.242a4.474,4.474,0,0,0,.661-7.3Zm-11.319.644-2.218,2.218h1.434a4.471,4.471,0,0,0,5.988,4.218,4.479,4.479,0,0,1-4.4-4.218h1.42l-2.218-2.218Z" transform="translate(-133.64 -1013.378)"/></g></g></g></svg>