<svg xmlns="http://www.w3.org/2000/svg" width="28" height="28" viewBox="0 0 28 28"><defs><style>.a{fill:#fff;}.b{fill:#a20200;}</style></defs><g transform="translate(-203 -105)"><g transform="translate(166 28)"><circle class="a" cx="14" cy="14" r="14" transform="translate(37 77)"/></g><g transform="translate(451.063 -152.132)"><path class="b" d="M-219.016,289.23a.166.166,0,0,0-.043-.108V289.1l-2.148-3.883a.456.456,0,0,0-.39-.217h-8.895c-.022,0-.022.022-.043.022a.021.021,0,0,0-.022.022c-.022.022-.065.043-.087.065h0l-.065.065v.022l-2.148,3.9v.022c-.022.043-.043.065-.043.108h0v.13a.94.94,0,0,0,.022.108v.022a.3.3,0,0,0,.065.087v.022l6.552,7.159.065.065a.021.021,0,0,1,.022.022c.022.022.043.022.087.043h.022c.043,0,.065.022.108.022h.108c.022,0,.022,0,.043-.022h0c.022,0,.022-.022.043-.022s.022-.022.043-.022l.022-.022.043-.043h0l6.552-7.159V289.6c.022-.022.043-.065.065-.087v-.022a.2.2,0,0,0,.022-.108v-.065c.022-.022.022-.043,0-.087Zm-3.189-3.363-1.193,2.972-1.866-2.972Zm-2.169,3.037h-3.232l1.605-2.582Zm-2.343-3.037-1.844,2.95-1.171-2.95Zm-3.71.586.976,2.451h-2.321Zm-1.106,3.319h2.43l1.866,4.686Zm5.554,5.532-2.191-5.489.022-.043h4.317l.022.043h0Zm1.28-.846,1.866-4.686h2.408Zm2.213-5.554.976-2.43,1.345,2.43Z" transform="translate(-8.263 -18.01)"/><path class="b" d="M-202.566,265.862a.435.435,0,0,0,.434-.434v-2.994a.435.435,0,0,0-.434-.434.435.435,0,0,0-.434.434v2.994A.435.435,0,0,0-202.566,265.862Z" transform="translate(-31.677)"/><path class="b" d="M-169.86,271.72a.44.44,0,0,0-.607-.022l-2.213,2.1a.44.44,0,0,0-.022.607.428.428,0,0,0,.3.13.428.428,0,0,0,.3-.13l2.213-2.1A.411.411,0,0,0-169.86,271.72Z" transform="translate(-55.315 -7.507)"/><path class="b" d="M-240.794,274.609a.428.428,0,0,0,.3-.13.419.419,0,0,0-.022-.607l-2.213-2.1a.419.419,0,0,0-.607.022.419.419,0,0,0,.022.607l2.213,2.1A.406.406,0,0,0-240.794,274.609Z" transform="translate(0 -7.555)"/></g></g></svg>